<svg id="visual" viewBox="0 0 7680 1440" width="7680" height="1440" xmlns="http://www.w3.org/2000/svg" xmlns:xlink="http://www.w3.org/1999/xlink" version="1.1"><path d="M0 485L91.5 508.5C183 532 366 579 548.8 581.3C731.7 583.7 914.3 541.3 1097.2 556.5C1280 571.7 1463 644.3 1645.8 649.5C1828.7 654.7 2011.3 592.3 2194.2 581.3C2377 570.3 2560 610.7 2742.8 637.8C2925.7 665 3108.3 679 3291.2 644.5C3474 610 3657 527 3840 497.3C4023 467.7 4206 491.3 4388.8 535.3C4571.7 579.3 4754.3 643.7 4937.2 619C5120 594.3 5303 480.7 5485.8 481.2C5668.7 481.7 5851.3 596.3 6034.2 586.8C6217 577.3 6400 443.7 6582.8 376.3C6765.7 309 6948.3 308 7131.2 317.2C7314 326.3 7497 345.7 7588.5 355.3L7680 365L7680 0L7588.5 0C7497 0 7314 0 7131.2 0C6948.3 0 6765.7 0 6582.8 0C6400 0 6217 0 6034.2 0C5851.3 0 5668.7 0 5485.8 0C5303 0 5120 0 4937.2 0C4754.3 0 4571.7 0 4388.8 0C4206 0 4023 0 3840 0C3657 0 3474 0 3291.2 0C3108.3 0 2925.7 0 2742.8 0C2560 0 2377 0 2194.2 0C2011.3 0 1828.7 0 1645.8 0C1463 0 1280 0 1097.2 0C914.3 0 731.7 0 548.8 0C366 0 183 0 91.5 0L0 0Z" fill="#0080ff"></path><path d="M0 516L91.5 473.3C183 430.7 366 345.3 548.8 340.7C731.7 336 914.3 412 1097.2 422.7C1280 433.3 1463 378.7 1645.8 377.8C1828.7 377 2011.3 430 2194.2 478.3C2377 526.7 2560 570.3 2742.8 590.3C2925.7 610.3 3108.3 606.7 3291.2 592.7C3474 578.7 3657 554.3 3840 518.2C4023 482 4206 434 4388.8 410.8C4571.7 387.7 4754.3 389.3 4937.2 388.8C5120 388.3 5303 385.7 5485.8 359.3C5668.7 333 5851.3 283 6034.2 272.8C6217 262.7 6400 292.3 6582.8 357.5C6765.7 422.7 6948.3 523.3 7131.2 532.2C7314 541 7497 458 7588.5 416.5L7680 375L7680 0L7588.5 0C7497 0 7314 0 7131.2 0C6948.3 0 6765.7 0 6582.8 0C6400 0 6217 0 6034.2 0C5851.3 0 5668.7 0 5485.8 0C5303 0 5120 0 4937.2 0C4754.3 0 4571.7 0 4388.8 0C4206 0 4023 0 3840 0C3657 0 3474 0 3291.2 0C3108.3 0 2925.7 0 2742.8 0C2560 0 2377 0 2194.2 0C2011.3 0 1828.7 0 1645.8 0C1463 0 1280 0 1097.2 0C914.3 0 731.7 0 548.8 0C366 0 183 0 91.5 0L0 0Z" fill="#3393f3"></path><path d="M0 420L91.5 427.5C183 435 366 450 548.8 450.8C731.7 451.7 914.3 438.3 1097.2 403.7C1280 369 1463 313 1645.8 277C1828.7 241 2011.3 225 2194.2 253C2377 281 2560 353 2742.8 359.3C2925.7 365.7 3108.3 306.3 3291.2 312.2C3474 318 3657 389 3840 379.3C4023 369.7 4206 279.3 4388.8 281.8C4571.7 284.3 4754.3 379.7 4937.2 434C5120 488.3 5303 501.7 5485.8 509.7C5668.7 517.7 5851.3 520.3 6034.2 497.7C6217 475 6400 427 6582.8 421.3C6765.7 415.7 6948.3 452.3 7131.2 464.5C7314 476.7 7497 464.3 7588.5 458.2L7680 452L7680 0L7588.5 0C7497 0 7314 0 7131.2 0C6948.3 0 6765.7 0 6582.8 0C6400 0 6217 0 6034.2 0C5851.3 0 5668.7 0 5485.8 0C5303 0 5120 0 4937.2 0C4754.3 0 4571.7 0 4388.8 0C4206 0 4023 0 3840 0C3657 0 3474 0 3291.2 0C3108.3 0 2925.7 0 2742.8 0C2560 0 2377 0 2194.2 0C2011.3 0 1828.7 0 1645.8 0C1463 0 1280 0 1097.2 0C914.3 0 731.7 0 548.8 0C366 0 183 0 91.5 0L0 0Z" fill="#5fa2e4"></path><path d="M0 323L91.5 341C183 359 366 395 548.8 400.3C731.7 405.7 914.3 380.3 1097.2 374.8C1280 369.3 1463 383.7 1645.8 381.2C1828.7 378.7 2011.3 359.3 2194.2 366C2377 372.7 2560 405.3 2742.8 385C2925.7 364.7 3108.3 291.3 3291.2 253.2C3474 215 3657 212 3840 236.3C4023 260.7 4206 312.3 4388.8 318.5C4571.7 324.7 4754.3 285.3 4937.2 274.8C5120 264.3 5303 282.7 5485.8 309.8C5668.7 337 5851.3 373 6034.2 387.7C6217 402.3 6400 395.7 6582.8 353.5C6765.7 311.3 6948.3 233.7 7131.2 197.5C7314 161.3 7497 166.7 7588.5 169.3L7680 172L7680 0L7588.5 0C7497 0 7314 0 7131.2 0C6948.3 0 6765.7 0 6582.8 0C6400 0 6217 0 6034.2 0C5851.3 0 5668.7 0 5485.8 0C5303 0 5120 0 4937.2 0C4754.3 0 4571.7 0 4388.8 0C4206 0 4023 0 3840 0C3657 0 3474 0 3291.2 0C3108.3 0 2925.7 0 2742.8 0C2560 0 2377 0 2194.2 0C2011.3 0 1828.7 0 1645.8 0C1463 0 1280 0 1097.2 0C914.3 0 731.7 0 548.8 0C366 0 183 0 91.5 0L0 0Z" fill="#6fa8dd"></path><path d="M0 143L91.5 141.2C183 139.3 366 135.7 548.8 170.2C731.7 204.7 914.3 277.3 1097.2 312.8C1280 348.3 1463 346.7 1645.8 330.2C1828.7 313.7 2011.3 282.3 2194.2 258.7C2377 235 2560 219 2742.8 203.2C2925.7 187.3 3108.3 171.7 3291.2 156.2C3474 140.7 3657 125.3 3840 134.2C4023 143 4206 176 4388.8 176.8C4571.7 177.7 4754.3 146.3 4937.2 150.5C5120 154.7 5303 194.3 5485.8 193.5C5668.7 192.7 5851.3 151.3 6034.2 140.7C6217 130 6400 150 6582.8 173.8C6765.7 197.7 6948.3 225.3 7131.2 251.2C7314 277 7497 301 7588.5 313L7680 325L7680 0L7588.5 0C7497 0 7314 0 7131.2 0C6948.3 0 6765.7 0 6582.8 0C6400 0 6217 0 6034.2 0C5851.3 0 5668.7 0 5485.8 0C5303 0 5120 0 4937.2 0C4754.3 0 4571.7 0 4388.8 0C4206 0 4023 0 3840 0C3657 0 3474 0 3291.2 0C3108.3 0 2925.7 0 2742.8 0C2560 0 2377 0 2194.2 0C2011.3 0 1828.7 0 1645.8 0C1463 0 1280 0 1097.2 0C914.3 0 731.7 0 548.8 0C366 0 183 0 91.5 0L0 0Z" fill="#5fa2e4"></path><path d="M0 231L91.5 204.3C183 177.7 366 124.3 548.8 128.8C731.7 133.3 914.3 195.7 1097.2 226.2C1280 256.7 1463 255.3 1645.8 231.7C1828.7 208 2011.3 162 2194.2 145C2377 128 2560 140 2742.8 130.7C2925.7 121.3 3108.3 90.7 3291.2 87C3474 83.3 3657 106.7 3840 130.7C4023 154.7 4206 179.3 4388.8 193.3C4571.7 207.3 4754.3 210.7 4937.2 208.2C5120 205.7 5303 197.3 5485.8 194.8C5668.7 192.3 5851.3 195.7 6034.2 195.3C6217 195 6400 191 6582.8 172C6765.7 153 6948.3 119 7131.2 124.8C7314 130.7 7497 176.3 7588.5 199.2L7680 222L7680 0L7588.5 0C7497 0 7314 0 7131.2 0C6948.3 0 6765.7 0 6582.8 0C6400 0 6217 0 6034.2 0C5851.3 0 5668.7 0 5485.8 0C5303 0 5120 0 4937.2 0C4754.3 0 4571.7 0 4388.8 0C4206 0 4023 0 3840 0C3657 0 3474 0 3291.2 0C3108.3 0 2925.7 0 2742.8 0C2560 0 2377 0 2194.2 0C2011.3 0 1828.7 0 1645.8 0C1463 0 1280 0 1097.2 0C914.3 0 731.7 0 548.8 0C366 0 183 0 91.5 0L0 0Z" fill="#3393f3"></path><path d="M0 147L91.5 123.5C183 100 366 53 548.8 51.2C731.7 49.3 914.3 92.7 1097.2 111.7C1280 130.7 1463 125.3 1645.8 117.8C1828.7 110.3 2011.3 100.7 2194.2 98.7C2377 96.7 2560 102.3 2742.8 98.8C2925.7 95.3 3108.3 82.7 3291.2 67.2C3474 51.7 3657 33.3 3840 41.7C4023 50 4206 85 4388.8 109.2C4571.7 133.3 4754.3 146.7 4937.2 132.2C5120 117.7 5303 75.3 5485.8 65.3C5668.7 55.3 5851.3 77.7 6034.2 90.7C6217 103.7 6400 107.3 6582.8 113.3C6765.7 119.3 6948.3 127.7 7131.2 133.5C7314 139.3 7497 142.7 7588.5 144.3L7680 146L7680 0L7588.5 0C7497 0 7314 0 7131.2 0C6948.3 0 6765.7 0 6582.8 0C6400 0 6217 0 6034.2 0C5851.3 0 5668.7 0 5485.8 0C5303 0 5120 0 4937.2 0C4754.3 0 4571.7 0 4388.8 0C4206 0 4023 0 3840 0C3657 0 3474 0 3291.2 0C3108.3 0 2925.7 0 2742.8 0C2560 0 2377 0 2194.2 0C2011.3 0 1828.7 0 1645.8 0C1463 0 1280 0 1097.2 0C914.3 0 731.7 0 548.8 0C366 0 183 0 91.5 0L0 0Z" fill="#0080ff"></path></svg>