<svg id="visual" viewBox="0 0 7680 1440" width="7680" height="1440" xmlns="http://www.w3.org/2000/svg" xmlns:xlink="http://www.w3.org/1999/xlink" version="1.1"><path d="M0 1084L91.5 1031.3C183 978.7 366 873.3 548.8 879.2C731.7 885 914.3 1002 1097.2 1065.5C1280 1129 1463 1139 1645.8 1084.5C1828.7 1030 2011.3 911 2194.2 911.7C2377 912.3 2560 1032.7 2742.8 1093.2C2925.7 1153.7 3108.3 1154.3 3291.2 1091.7C3474 1029 3657 903 3840 881.3C4023 859.7 4206 942.3 4388.8 988C4571.7 1033.7 4754.3 1042.3 4937.2 1007.2C5120 972 5303 893 5485.8 905.8C5668.7 918.7 5851.3 1023.3 6034.2 1073C6217 1122.7 6400 1117.3 6582.8 1088.8C6765.7 1060.3 6948.3 1008.7 7131.2 957.8C7314 907 7497 857 7588.5 832L7680 807L7680 1441L7588.5 1441C7497 1441 7314 1441 7131.2 1441C6948.3 1441 6765.7 1441 6582.8 1441C6400 1441 6217 1441 6034.2 1441C5851.3 1441 5668.7 1441 5485.8 1441C5303 1441 5120 1441 4937.2 1441C4754.3 1441 4571.7 1441 4388.8 1441C4206 1441 4023 1441 3840 1441C3657 1441 3474 1441 3291.2 1441C3108.3 1441 2925.7 1441 2742.8 1441C2560 1441 2377 1441 2194.2 1441C2011.3 1441 1828.7 1441 1645.8 1441C1463 1441 1280 1441 1097.2 1441C914.3 1441 731.7 1441 548.8 1441C366 1441 183 1441 91.5 1441L0 1441Z" fill="#0080ff"></path><path d="M0 1073L91.5 1048.7C183 1024.3 366 975.7 548.8 946.7C731.7 917.7 914.3 908.3 1097.2 907C1280 905.7 1463 912.3 1645.8 898.3C1828.7 884.3 2011.3 849.7 2194.2 893.3C2377 937 2560 1059 2742.8 1075.8C2925.7 1092.7 3108.3 1004.3 3291.2 957.7C3474 911 3657 906 3840 925.3C4023 944.7 4206 988.3 4388.8 1022.8C4571.7 1057.3 4754.3 1082.7 4937.2 1069.5C5120 1056.3 5303 1004.7 5485.8 1001.8C5668.7 999 5851.3 1045 6034.2 1055.2C6217 1065.3 6400 1039.7 6582.8 1012.2C6765.7 984.7 6948.3 955.3 7131.2 943.8C7314 932.3 7497 938.7 7588.5 941.8L7680 945L7680 1441L7588.5 1441C7497 1441 7314 1441 7131.2 1441C6948.3 1441 6765.7 1441 6582.8 1441C6400 1441 6217 1441 6034.2 1441C5851.3 1441 5668.7 1441 5485.8 1441C5303 1441 5120 1441 4937.2 1441C4754.3 1441 4571.7 1441 4388.8 1441C4206 1441 4023 1441 3840 1441C3657 1441 3474 1441 3291.2 1441C3108.3 1441 2925.7 1441 2742.8 1441C2560 1441 2377 1441 2194.2 1441C2011.3 1441 1828.7 1441 1645.8 1441C1463 1441 1280 1441 1097.2 1441C914.3 1441 731.7 1441 548.8 1441C366 1441 183 1441 91.5 1441L0 1441Z" fill="#3393f3"></path><path d="M0 942L91.5 987.5C183 1033 366 1124 548.8 1121.3C731.7 1118.7 914.3 1022.3 1097.2 972.7C1280 923 1463 920 1645.8 972.2C1828.7 1024.3 2011.3 1131.7 2194.2 1180.3C2377 1229 2560 1219 2742.8 1176.8C2925.7 1134.7 3108.3 1060.3 3291.2 1023C3474 985.7 3657 985.3 3840 1011.3C4023 1037.3 4206 1089.7 4388.8 1104.8C4571.7 1120 4754.3 1098 4937.2 1086.8C5120 1075.7 5303 1075.3 5485.8 1100.8C5668.7 1126.3 5851.3 1177.7 6034.2 1169C6217 1160.3 6400 1091.7 6582.8 1092C6765.7 1092.3 6948.3 1161.7 7131.2 1168.2C7314 1174.7 7497 1118.3 7588.5 1090.2L7680 1062L7680 1441L7588.5 1441C7497 1441 7314 1441 7131.2 1441C6948.3 1441 6765.7 1441 6582.8 1441C6400 1441 6217 1441 6034.2 1441C5851.3 1441 5668.7 1441 5485.8 1441C5303 1441 5120 1441 4937.2 1441C4754.3 1441 4571.7 1441 4388.8 1441C4206 1441 4023 1441 3840 1441C3657 1441 3474 1441 3291.2 1441C3108.3 1441 2925.7 1441 2742.8 1441C2560 1441 2377 1441 2194.2 1441C2011.3 1441 1828.7 1441 1645.8 1441C1463 1441 1280 1441 1097.2 1441C914.3 1441 731.7 1441 548.8 1441C366 1441 183 1441 91.5 1441L0 1441Z" fill="#5fa2e4"></path><path d="M0 1000L91.5 1046.8C183 1093.7 366 1187.3 548.8 1189.5C731.7 1191.7 914.3 1102.3 1097.2 1078.3C1280 1054.3 1463 1095.7 1645.8 1132.8C1828.7 1170 2011.3 1203 2194.2 1198C2377 1193 2560 1150 2742.8 1150.5C2925.7 1151 3108.3 1195 3291.2 1186.3C3474 1177.7 3657 1116.3 3840 1097.3C4023 1078.3 4206 1101.7 4388.8 1125.3C4571.7 1149 4754.3 1173 4937.2 1174.3C5120 1175.7 5303 1154.3 5485.8 1149.2C5668.7 1144 5851.3 1155 6034.2 1177C6217 1199 6400 1232 6582.8 1246.7C6765.7 1261.3 6948.3 1257.7 7131.2 1251.7C7314 1245.7 7497 1237.3 7588.5 1233.2L7680 1229L7680 1441L7588.5 1441C7497 1441 7314 1441 7131.2 1441C6948.3 1441 6765.7 1441 6582.8 1441C6400 1441 6217 1441 6034.2 1441C5851.3 1441 5668.7 1441 5485.8 1441C5303 1441 5120 1441 4937.2 1441C4754.3 1441 4571.7 1441 4388.8 1441C4206 1441 4023 1441 3840 1441C3657 1441 3474 1441 3291.2 1441C3108.3 1441 2925.7 1441 2742.8 1441C2560 1441 2377 1441 2194.2 1441C2011.3 1441 1828.7 1441 1645.8 1441C1463 1441 1280 1441 1097.2 1441C914.3 1441 731.7 1441 548.8 1441C366 1441 183 1441 91.5 1441L0 1441Z" fill="#6fa8dd"></path><path d="M0 1237L91.5 1226.2C183 1215.3 366 1193.7 548.8 1196C731.7 1198.3 914.3 1224.7 1097.2 1230.7C1280 1236.7 1463 1222.3 1645.8 1211.2C1828.7 1200 2011.3 1192 2194.2 1195.8C2377 1199.7 2560 1215.3 2742.8 1197.8C2925.7 1180.3 3108.3 1129.7 3291.2 1130C3474 1130.3 3657 1181.7 3840 1191.3C4023 1201 4206 1169 4388.8 1143.8C4571.7 1118.7 4754.3 1100.3 4937.2 1114.8C5120 1129.3 5303 1176.7 5485.8 1189C5668.7 1201.3 5851.3 1178.7 6034.2 1196.8C6217 1215 6400 1274 6582.8 1297.5C6765.7 1321 6948.3 1309 7131.2 1299.5C7314 1290 7497 1283 7588.5 1279.5L7680 1276L7680 1441L7588.5 1441C7497 1441 7314 1441 7131.2 1441C6948.3 1441 6765.7 1441 6582.8 1441C6400 1441 6217 1441 6034.2 1441C5851.3 1441 5668.7 1441 5485.8 1441C5303 1441 5120 1441 4937.2 1441C4754.3 1441 4571.7 1441 4388.8 1441C4206 1441 4023 1441 3840 1441C3657 1441 3474 1441 3291.2 1441C3108.3 1441 2925.7 1441 2742.8 1441C2560 1441 2377 1441 2194.2 1441C2011.3 1441 1828.7 1441 1645.8 1441C1463 1441 1280 1441 1097.2 1441C914.3 1441 731.7 1441 548.8 1441C366 1441 183 1441 91.5 1441L0 1441Z" fill="#5fa2e4"></path><path d="M0 1269L91.5 1272.2C183 1275.3 366 1281.7 548.8 1278.2C731.7 1274.7 914.3 1261.3 1097.2 1273.5C1280 1285.7 1463 1323.3 1645.8 1324.8C1828.7 1326.3 2011.3 1291.7 2194.2 1291.3C2377 1291 2560 1325 2742.8 1313.3C2925.7 1301.7 3108.3 1244.3 3291.2 1239.2C3474 1234 3657 1281 3840 1286.8C4023 1292.7 4206 1257.3 4388.8 1255.8C4571.7 1254.3 4754.3 1286.7 4937.2 1310.7C5120 1334.7 5303 1350.3 5485.8 1343.5C5668.7 1336.7 5851.3 1307.3 6034.2 1282.5C6217 1257.7 6400 1237.3 6582.8 1242.8C6765.7 1248.3 6948.3 1279.7 7131.2 1275.2C7314 1270.7 7497 1230.3 7588.5 1210.2L7680 1190L7680 1441L7588.5 1441C7497 1441 7314 1441 7131.2 1441C6948.3 1441 6765.7 1441 6582.8 1441C6400 1441 6217 1441 6034.2 1441C5851.3 1441 5668.7 1441 5485.8 1441C5303 1441 5120 1441 4937.2 1441C4754.3 1441 4571.7 1441 4388.8 1441C4206 1441 4023 1441 3840 1441C3657 1441 3474 1441 3291.2 1441C3108.3 1441 2925.7 1441 2742.8 1441C2560 1441 2377 1441 2194.2 1441C2011.3 1441 1828.7 1441 1645.8 1441C1463 1441 1280 1441 1097.2 1441C914.3 1441 731.7 1441 548.8 1441C366 1441 183 1441 91.5 1441L0 1441Z" fill="#3393f3"></path><path d="M0 1385L91.5 1367.3C183 1349.7 366 1314.3 548.8 1315.2C731.7 1316 914.3 1353 1097.2 1356C1280 1359 1463 1328 1645.8 1314.5C1828.7 1301 2011.3 1305 2194.2 1313.2C2377 1321.3 2560 1333.7 2742.8 1348.7C2925.7 1363.7 3108.3 1381.3 3291.2 1379.3C3474 1377.3 3657 1355.7 3840 1343.2C4023 1330.7 4206 1327.3 4388.8 1330.5C4571.7 1333.7 4754.3 1343.3 4937.2 1346.7C5120 1350 5303 1347 5485.8 1338C5668.7 1329 5851.3 1314 6034.2 1320.8C6217 1327.7 6400 1356.3 6582.8 1377.2C6765.7 1398 6948.3 1411 7131.2 1396.5C7314 1382 7497 1340 7588.5 1319L7680 1298L7680 1441L7588.5 1441C7497 1441 7314 1441 7131.2 1441C6948.3 1441 6765.7 1441 6582.8 1441C6400 1441 6217 1441 6034.2 1441C5851.3 1441 5668.7 1441 5485.8 1441C5303 1441 5120 1441 4937.2 1441C4754.3 1441 4571.7 1441 4388.8 1441C4206 1441 4023 1441 3840 1441C3657 1441 3474 1441 3291.2 1441C3108.3 1441 2925.7 1441 2742.8 1441C2560 1441 2377 1441 2194.2 1441C2011.3 1441 1828.7 1441 1645.8 1441C1463 1441 1280 1441 1097.2 1441C914.3 1441 731.7 1441 548.8 1441C366 1441 183 1441 91.5 1441L0 1441Z" fill="#0080ff"></path></svg>