<?xml version="1.0" standalone="no"?>
<!DOCTYPE svg PUBLIC "-//W3C//DTD SVG 20010904//EN"
 "http://www.w3.org/TR/2001/REC-SVG-20010904/DTD/svg10.dtd">
<svg version="1.0" xmlns="http://www.w3.org/2000/svg"
 width="512.000000pt" height="512.000000pt" viewBox="0 0 512.000000 512.000000"
 preserveAspectRatio="xMidYMid meet">
<g transform="translate(0.000000,512.000000) scale(0.100000,-0.100000)"
fill="#101a2c" stroke="none">
<!-- Rettangolo di sfondo colorato -->
<rect x="0" y="0" width="5120" height="5120" fill="#0080ff"/>
<path d="M0 2560 l0 -2560 2560 0 2560 0 0 2560 0 2560 -2560 0 -2560 0 0
-2560z m2819 1805 c252 -36 486 -121 704 -256 228 -142 453 -369 597 -604 98
-160 187 -389 230 -590 27 -128 38 -428 21 -571 -23 -196 -92 -427 -176 -594
-90 -180 -181 -306 -335 -464 -256 -264 -574 -437 -945 -516 -128 -27 -428
-38 -571 -21 -196 23 -427 92 -594 176 -180 90 -306 181 -464 335 -264 256
-437 574 -516 945 -27 128 -38 428 -21 571 31 263 122 521 262 747 142 228
369 453 604 597 196 121 479 221 705 249 110 14 387 12 499 -4z"/>
<path d="M2432 3929 c-838 -75 -1412 -892 -1203 -1712 188 -734 936 -1176
1674 -988 734 188 1176 936 988 1674 -127 498 -517 877 -1025 997 -75 18 -274
42 -321 39 -11 -1 -62 -5 -113 -10z"/>
</g>
</svg>