<?xml version="1.0" encoding="UTF-8" standalone="no"?>
<svg
   id="visual"
   viewBox="0 0 7680.3887 523.98071"
   width="7680.3887"
   height="523.98071"
   version="1.1"
   xmlns="http://www.w3.org/2000/svg"
   xmlns:svg="http://www.w3.org/2000/svg">
  <defs
     id="defs7" />
  <path
     d="M 0.06894866,112.23069 91.568949,90.878498 c 91.500001,-21.3116 274.500001,-64.0161 457.300001,-61.6255 182.9,2.3499 365.5,49.7542 548.39995,75.482192 182.8,25.728 365.8,29.7796 548.6,7.6982 182.9,-22.081492 365.5,-70.296192 548.4,-70.012592 182.8,0.2431 365.8,49.025 548.6,73.537392 182.9,24.5126 365.5,24.7557 548.4,-0.6077 182.8,-25.403792 365.8,-76.454592 548.8,-85.246692 183,-8.7515 366,24.715 548.8,43.2311 182.9,18.5161 365.5,22.0005 548.4,7.7792 182.8,-14.2619 365.8,-46.2699 548.6,-41.0838 182.9,5.2267 365.5,47.607 548.4,67.743592 182.8,20.1368 365.8,17.9489 548.6,6.4017 182.9,-11.5472 365.5,-32.453692 548.4,-53.076592 182.8,-20.5824 365.8,-40.8407 457.3,-50.9698 l 91.5,-10.1291998488682 V 256.87469 h -91.5 c -91.5,0 -274.5,0 -457.3,0 -182.9,0 -365.5,0 -548.4,0 -182.8,0 -365.8,0 -548.6,0 -182.9,0 -365.5,0 -548.4,0 -182.8,0 -365.8,0 -548.6,0 -182.9,0 -365.5,0 -548.4,0 -182.8,0 -365.8,0 -548.8,0 -183,0 -366,0 -548.8,0 -182.9,0 -365.5,0 -548.4,0 -182.8,0 -365.8,0 -548.6,0 -182.9,0 -365.5,0 -548.4,0 -182.8,0 -365.8,0 -548.6,0 -182.89995,0 -365.49995,0 -548.39995,0 -182.8,0 -365.8,0 -457.300001,0 H 0.06894866 Z"
     fill="#0080ff"
     id="path1"
     style="stroke-width:0.636525" />
  <path
     d="M 0.06894866,107.77389 91.568949,97.928398 c 91.500001,-9.886 274.500001,-29.577 457.300001,-41.3268 182.9,-11.7498 365.5,-15.5583 548.39995,-16.085 182.8,-0.5267 365.8,2.1473 548.6,-3.525 182.9,-5.6723 365.5,-19.691 548.4,-2.0258 182.8,17.7057 365.8,67.135792 548.6,73.942592 182.9,6.8473 365.5,-28.969292 548.4,-47.849892 182.8,-18.9213 365.8,-20.9472 548.8,-13.1274 183,7.8602 366,25.5254 548.8,39.5036 182.9,13.978192 365.5,24.269292 548.4,18.921192 182.8,-5.3483 365.8,-26.254792 548.6,-27.429692 182.9,-1.1345 365.5,17.5031 548.4,21.635792 182.8,4.0922 365.8,-6.279992 548.6,-17.422092 182.9,-11.1421 365.5,-23.0539 548.4,-27.7133 182.8,-4.6594 365.8,-2.0663 457.3,-0.8103 l 91.5,1.2965 V 256.87469 h -91.5 c -91.5,0 -274.5,0 -457.3,0 -182.9,0 -365.5,0 -548.4,0 -182.8,0 -365.8,0 -548.6,0 -182.9,0 -365.5,0 -548.4,0 -182.8,0 -365.8,0 -548.6,0 -182.9,0 -365.5,0 -548.4,0 -182.8,0 -365.8,0 -548.8,0 -183,0 -366,0 -548.8,0 -182.9,0 -365.5,0 -548.4,0 -182.8,0 -365.8,0 -548.6,0 -182.9,0 -365.5,0 -548.4,0 -182.8,0 -365.8,0 -548.6,0 -182.89995,0 -365.49995,0 -548.39995,0 -182.8,0 -365.8,0 -457.300001,0 H 0.06894866 Z"
     fill="#3393f3"
     id="path2"
     style="stroke-width:0.636525" />
  <path
     d="m 0.06894866,54.697298 91.50000034,18.4351 c 91.500001,18.4349 274.500001,55.304992 457.300001,54.210992 182.9,-1.0534 365.5,-40.111292 548.39995,-60.207492 182.8,-20.1367 365.8,-21.3522 548.6,-0.2026 182.9,21.1091 365.5,64.623792 548.4,84.314892 182.8,19.7315 365.8,15.6799 548.6,-1.4181 182.9,-17.0574 365.5,-47.2017 548.4,-62.314392 182.8,-15.1127 365.8,-15.2747 548.8,-4.7405 183,10.5344 366,31.764992 548.8,37.882992 182.9,6.1585 365.5,-2.7552 548.4,-7.293 182.8,-4.4973 365.8,-4.6594 548.6,5.6723 182.9,10.3317 365.5,31.1573 548.4,27.6323 182.8,-3.5249 365.8,-31.3193 548.6,-31.1977 182.9,0.1215 365.5,28.24 548.4,30.8736 182.8,2.6335 365.8,-20.2178 457.3,-31.6029 l 91.5,-11.4256 v 153.5575 h -91.5 c -91.5,0 -274.5,0 -457.3,0 -182.9,0 -365.5,0 -548.4,0 -182.8,0 -365.8,0 -548.6,0 -182.9,0 -365.5,0 -548.4,0 -182.8,0 -365.8,0 -548.6,0 -182.9,0 -365.5,0 -548.4,0 -182.8,0 -365.8,0 -548.8,0 -183,0 -366,0 -548.8,0 -182.9,0 -365.5,0 -548.4,0 -182.8,0 -365.8,0 -548.6,0 -182.9,0 -365.5,0 -548.4,0 -182.8,0 -365.8,0 -548.6,0 -182.89995,0 -365.49995,0 -548.39995,0 -182.8,0 -365.8,0 -457.300001,0 H 0.06894866 Z"
     fill="#5fa2e4"
     id="path3"
     style="stroke-width:0.636525" />
  <path
     d="m 0.06894866,78.196898 91.50000034,18.9618 c 91.500001,19.002192 274.500001,56.925692 457.300001,57.816992 182.9,0.8914 365.5,-35.3305 548.39995,-45.0543 182.8,-9.724 365.8,7.0498 548.6,22.0814 182.9,15.0722 365.5,28.4426 548.4,26.4168 182.8,-2.0258 365.8,-19.4479 548.6,-19.2453 182.9,0.2026 365.5,18.0299 548.4,14.5048 182.8,-3.4843 365.8,-28.3615 548.8,-36.0597 183,-7.698 366,1.7828 548.8,11.3447 182.9,9.6024 365.5,19.3264 548.4,19.8531 182.8,0.5672 365.8,-8.1033 548.6,-10.1696 182.9,-2.107 365.5,2.3499 548.4,11.2636 182.8,8.9135 365.8,22.284 548.6,28.24 182.9,5.9154 365.5,4.4567 548.4,2.0257 182.8,-2.431 365.8,-5.8343 457.3,-7.4956 l 91.5,-1.7016 v 85.895 h -91.5 c -91.5,0 -274.5,0 -457.3,0 -182.9,0 -365.5,0 -548.4,0 -182.8,0 -365.8,0 -548.6,0 -182.9,0 -365.5,0 -548.4,0 -182.8,0 -365.8,0 -548.6,0 -182.9,0 -365.5,0 -548.4,0 -182.8,0 -365.8,0 -548.8,0 -183,0 -366,0 -548.8,0 -182.9,0 -365.5,0 -548.4,0 -182.8,0 -365.8,0 -548.6,0 -182.9,0 -365.5,0 -548.4,0 -182.8,0 -365.8,0 -548.6,0 -182.89995,0 -365.49995,0 -548.39995,0 -182.8,0 -365.8,0 -457.300001,0 H 0.06894866 Z"
     fill="#6fa8dd"
     id="path4"
     style="stroke-width:0.636525" />
  <path
     d="m 0.06894866,174.22099 91.50000034,-4.3758 c 91.500001,-4.4163 274.500001,-13.1678 457.300001,-12.2359 182.9,0.9318 365.5,11.6282 548.39995,14.0592 182.8,2.431 365.8,-3.4034 548.6,-7.9007 182.9,-4.5378 365.5,-7.7793 548.4,-6.2396 182.8,1.5802 365.8,7.9007 548.6,0.8104 182.9,-7.0904 365.5,-27.5917 548.4,-27.4703 182.8,0.1217 365.8,20.947 548.8,24.8366 183,3.9302 366,-9.0351 548.8,-19.2453 182.9,-10.1696 365.5,-17.6247 548.4,-11.7498 182.8,5.875 365.8,25.0797 548.6,30.0633 182.9,4.9835 365.5,-4.1732 548.4,3.1603 182.8,7.374 365.8,31.2787 548.6,40.8002 182.9,9.5213 365.5,4.6593 548.4,0.8102 182.8,-3.849 365.8,-6.6852 457.3,-8.1033 l 91.5,-1.418 v 66.8522 h -91.5 c -91.5,0 -274.5,0 -457.3,0 -182.9,0 -365.5,0 -548.4,0 -182.8,0 -365.8,0 -548.6,0 -182.9,0 -365.5,0 -548.4,0 -182.8,0 -365.8,0 -548.6,0 -182.9,0 -365.5,0 -548.4,0 -182.8,0 -365.8,0 -548.8,0 -183,0 -366,0 -548.8,0 -182.9,0 -365.5,0 -548.4,0 -182.8,0 -365.8,0 -548.6,0 -182.9,0 -365.5,0 -548.4,0 -182.8,0 -365.8,0 -548.6,0 -182.89995,0 -365.49995,0 -548.39995,0 -182.8,0 -365.8,0 -457.300001,0 H 0.06894866 Z"
     fill="#5fa2e4"
     id="path5"
     style="stroke-width:0.636525" />
  <path
     d="m 0.06894866,187.18629 91.50000034,1.2965 c 91.500001,1.2561 274.500001,3.8491 457.300001,2.431 182.9,-1.4181 365.5,-6.8472 548.39995,-1.9043 182.8,4.9431 365.8,20.1773 548.6,20.785 182.9,0.6078 365.5,-13.4109 548.4,-13.573 182.8,-0.1215 365.8,13.654 548.6,8.9136 182.9,-4.6999 365.5,-27.9563 548.4,-30.0227 182.8,-2.1068 365.8,16.9359 548.8,19.2858 183,2.3905 366,-11.9523 548.8,-12.5601 182.9,-0.6077 365.5,12.5197 548.4,22.2436 182.8,9.724 365.8,16.0446 548.6,13.2894 182.9,-2.7551 365.5,-14.6669 548.4,-24.7151 182.8,-10.0481 365.8,-18.3134 548.6,-16.0851 182.9,2.2285 365.5,14.9506 548.4,13.1275 182.8,-1.8233 365.8,-18.192 457.3,-26.3358 l 91.5,-8.1843 v 101.6964 h -91.5 c -91.5,0 -274.5,0 -457.3,0 -182.9,0 -365.5,0 -548.4,0 -182.8,0 -365.8,0 -548.6,0 -182.9,0 -365.5,0 -548.4,0 -182.8,0 -365.8,0 -548.6,0 -182.9,0 -365.5,0 -548.4,0 -182.8,0 -365.8,0 -548.8,0 -183,0 -366,0 -548.8,0 -182.9,0 -365.5,0 -548.4,0 -182.8,0 -365.8,0 -548.6,0 -182.9,0 -365.5,0 -548.4,0 -182.8,0 -365.8,0 -548.6,0 -182.89995,0 -365.49995,0 -548.39995,0 -182.8,0 -365.8,0 -457.300001,0 H 0.06894866 Z"
     fill="#3393f3"
     id="path6"
     style="stroke-width:0.636525" />
  <path
     d="m 0.06894866,234.18549 91.50000034,-7.1715 c 91.500001,-7.1308 274.500001,-21.4737 457.300001,-21.1091 182.9,0.3242 365.5,15.3153 548.39995,16.5308 182.8,1.2155 365.8,-11.3446 548.6,-16.8144 182.9,-5.4697 365.5,-3.849 548.4,-0.5266 182.8,3.2817 365.8,8.3058 548.6,14.3832 182.9,6.0776 365.5,13.2084 548.4,12.3981 182.8,-0.8103 365.8,-9.5618 548.8,-14.6264 183,-5.0645 366,-6.4421 548.8,-5.1456 182.9,1.2965 365.5,5.1861 548.4,6.5636 182.8,1.337 365.8,0.1216 548.6,-3.5249 182.9,-3.6465 365.5,-9.7239 548.4,-6.9688 182.8,2.7955 365.8,14.3833 548.6,22.8513 182.9,8.4274 365.5,13.6946 548.4,7.8196 182.8,-5.8748 365.8,-22.8917 457.3,-31.4002 l 91.5,-8.5084 v 57.9385 h -91.5 c -91.5,0 -274.5,0 -457.3,0 -182.9,0 -365.5,0 -548.4,0 -182.8,0 -365.8,0 -548.6,0 -182.9,0 -365.5,0 -548.4,0 -182.8,0 -365.8,0 -548.6,0 -182.9,0 -365.5,0 -548.4,0 -182.8,0 -365.8,0 -548.8,0 -183,0 -366,0 -548.8,0 -182.9,0 -365.5,0 -548.4,0 -182.8,0 -365.8,0 -548.6,0 -182.9,0 -365.5,0 -548.4,0 -182.8,0 -365.8,0 -548.6,0 -182.89995,0 -365.49995,0 -548.39995,0 -182.8,0 -365.8,0 -457.300001,0 H 0.06894866 Z"
     fill="#0080ff"
     id="path7"
     style="stroke-width:0.636525" />
  <path
     d="m 0,451.08369 91.5,9.5215 c 91.5,9.5213 274.5,28.564 457.3,29.4959 182.9,0.9725 365.5,-16.2065 548.3999,-10.048 182.8,6.1585 365.8,35.5735 548.6,37.6803 182.9,2.1069 365.5,-23.1754 548.4,-27.6323 182.8,-4.4567 365.8,11.9119 548.6,22.8919 182.9,11.0205 365.5,16.6928 548.4,2.7146 182.8,-13.9782 365.8,-47.6069 548.8,-59.6403 183,-11.9929 366,-2.431 548.8,15.3963 182.9,17.8273 365.5,43.9198 548.4,33.9124 182.8,-10.0077 365.8,-56.0344 548.6,-55.8318 182.9,0.2025 365.5,46.6344 548.4,42.7853 182.8,-3.8489 365.8,-57.979 548.6,-85.2872 182.9,-27.2676 365.5,-27.6727 548.4,-23.9452 182.8,3.6869 365.8,11.5472 457.3,15.4368 l 91.5,3.9301 v -147.8854 h -91.5 c -91.5,0 -274.5,0 -457.3,0 -182.9,0 -365.5,0 -548.4,0 -182.8,0 -365.8,0 -548.6,0 -182.9,0 -365.5,0 -548.4,0 -182.8,0 -365.8,0 -548.6,0 -182.9,0 -365.5,0 -548.4,0 -182.8,0 -365.8,0 -548.8,0 -183,0 -366,0 -548.8,0 -182.9,0 -365.5,0 -548.4,0 -182.8,0 -365.8,0 -548.6,0 -182.9,0 -365.5,0 -548.4,0 -182.8,0 -365.8,0 -548.6,0 -182.8999,0 -365.4999,0 -548.3999,0 -182.8,0 -365.8,0 -457.3,0 H 0 Z"
     fill="#0080ff"
     id="path1-1"
     style="stroke-width:0.636525" />
  <path
     d="m 0,463.64389 91.5,-17.3006 c 91.5,-17.26 274.5,-51.8611 457.3,-53.7248 182.9,-1.9043 365.5,28.8882 548.3999,33.2235 182.8,4.2948 365.8,-17.8273 548.6,-18.192 182.9,-0.324 365.5,21.1497 548.4,40.7192 182.8,19.6099 365.8,37.2752 548.6,45.3784 182.9,8.1033 365.5,6.6448 548.4,0.9725 182.8,-5.6723 365.8,-15.5584 548.8,-30.1848 183,-14.667 366,-34.1149 548.8,-43.5148 182.9,-9.3593 365.5,-8.711 548.4,-8.9136 182.8,-0.2026 365.8,-1.256 548.6,-11.9524 182.9,-10.6558 365.5,-30.9141 548.4,-35.0468 182.8,-4.0921 365.8,7.9008 548.6,34.3175 182.9,26.4168 365.5,67.1764 548.4,70.7824 182.8,3.5654 365.8,-30.0633 457.3,-46.8776 l 91.5,-16.8144 v -151.937 h -91.5 c -91.5,0 -274.5,0 -457.3,0 -182.9,0 -365.5,0 -548.4,0 -182.8,0 -365.8,0 -548.6,0 -182.9,0 -365.5,0 -548.4,0 -182.8,0 -365.8,0 -548.6,0 -182.9,0 -365.5,0 -548.4,0 -182.8,0 -365.8,0 -548.8,0 -183,0 -366,0 -548.8,0 -182.9,0 -365.5,0 -548.4,0 -182.8,0 -365.8,0 -548.6,0 -182.9,0 -365.5,0 -548.4,0 -182.8,0 -365.8,0 -548.6,0 -182.8999,0 -365.4999,0 -548.3999,0 -182.8,0 -365.8,0 -457.3,0 H 0 Z"
     fill="#3393f3"
     id="path2-1"
     style="stroke-width:0.636525" />
  <path
     d="m 0,424.74799 91.5,3.0388 c 91.5,3.0387 274.5,9.1162 457.3,9.4403 182.9,0.3646 365.5,-5.0645 548.3999,-19.0833 182.8,-14.0592 365.8,-36.7484 548.6,-51.3344 182.9,-14.5859 365.5,-21.0685 548.4,-9.724 182.8,11.3447 365.8,40.5166 548.6,43.0691 182.9,2.5931 365.5,-21.4737 548.4,-19.0832 182.8,2.3499 365.8,31.1166 548.8,27.1865 183,-3.8896 366,-40.5165 548.8,-39.5036 182.9,1.0129 365.5,39.6657 548.4,61.6662 182.8,22.0004 365.8,27.4296 548.6,30.6709 182.9,3.2414 365.5,4.2948 548.4,-4.8619 182.8,-9.1973 365.8,-28.6452 548.6,-30.9546 182.9,-2.269 365.5,12.56 548.4,17.5031 182.8,4.943 365.8,-0.081 457.3,-2.5526 l 91.5,-2.5119 v -183.1348 h -91.5 c -91.5,0 -274.5,0 -457.3,0 -182.9,0 -365.5,0 -548.4,0 -182.8,0 -365.8,0 -548.6,0 -182.9,0 -365.5,0 -548.4,0 -182.8,0 -365.8,0 -548.6,0 -182.9,0 -365.5,0 -548.4,0 -182.8,0 -365.8,0 -548.8,0 -183,0 -366,0 -548.8,0 -182.9,0 -365.5,0 -548.4,0 -182.8,0 -365.8,0 -548.6,0 -182.9,0 -365.5,0 -548.4,0 -182.8,0 -365.8,0 -548.6,0 -182.8999,0 -365.4999,0 -548.3999,0 -182.8,0 -365.8,0 -457.3,0 H 0 Z"
     fill="#5fa2e4"
     id="path3-5"
     style="stroke-width:0.636525" />
  <path
     d="m 0,385.44699 91.5,7.293 c 91.5,7.293 274.5,21.8789 457.3,24.0263 182.9,2.1879 365.5,-8.1033 548.3999,-10.3317 182.8,-2.2284 365.8,3.6059 548.6,2.593 182.9,-1.0129 365.5,-8.8731 548.4,-6.1585 182.8,2.7146 365.8,15.923 548.6,7.6982 182.9,-8.2249 365.5,-37.964 548.4,-53.4008 182.8,-15.4773 365.8,-16.6928 548.8,-6.8472 183,9.886 366,30.7925 548.8,33.3045 182.9,2.512 365.5,-13.4515 548.4,-17.7057 182.8,-4.2543 365.8,3.2008 548.6,14.1807 182.9,11.0205 365.5,25.6064 548.4,31.5624 182.8,5.9154 365.8,3.2413 548.6,-13.8567 182.9,-17.0979 365.5,-48.5387 548.4,-63.2057 182.8,-14.667 365.8,-12.4791 457.3,-11.4257 l 91.5,1.094 v -69.6885 h -91.5 c -91.5,0 -274.5,0 -457.3,0 -182.9,0 -365.5,0 -548.4,0 -182.8,0 -365.8,0 -548.6,0 -182.9,0 -365.5,0 -548.4,0 -182.8,0 -365.8,0 -548.6,0 -182.9,0 -365.5,0 -548.4,0 -182.8,0 -365.8,0 -548.8,0 -183,0 -366,0 -548.8,0 -182.9,0 -365.5,0 -548.4,0 -182.8,0 -365.8,0 -548.6,0 -182.9,0 -365.5,0 -548.4,0 -182.8,0 -365.8,0 -548.6,0 -182.8999,0 -365.4999,0 -548.3999,0 -182.8,0 -365.8,0 -457.3,0 H 0 Z"
     fill="#6fa8dd"
     id="path4-2"
     style="stroke-width:0.636525" />
  <path
     d="m 0,312.51729 91.5,-0.7293 c 91.5,-0.7698 274.5,-2.2285 457.3,11.7498 182.9,13.9781 365.5,43.3932 548.3999,57.7766 182.8,14.3833 365.8,13.735 548.6,7.0499 182.9,-6.6853 365.5,-19.4075 548.4,-28.9694 182.8,-9.6024 365.8,-16.085 548.6,-22.4867 182.9,-6.4421 365.5,-12.7626 548.4,-19.0427 182.8,-6.2801 365.8,-12.5197 548.8,-8.9137 183,3.5655 366,16.9359 548.8,17.2601 182.9,0.3647 365.5,-12.3576 548.4,-10.6558 182.8,1.7016 365.8,17.7461 548.6,17.422 182.9,-0.3241 365.5,-17.0979 548.4,-21.3927 182.8,-4.3352 365.8,3.7681 548.6,13.411 182.9,9.6834 365.5,20.866 548.4,31.3597 182.8,10.4533 365.8,20.1773 457.3,25.0393 l 91.5,4.8619 v -131.6787 h -91.5 c -91.5,0 -274.5,0 -457.3,0 -182.9,0 -365.5,0 -548.4,0 -182.8,0 -365.8,0 -548.6,0 -182.9,0 -365.5,0 -548.4,0 -182.8,0 -365.8,0 -548.6,0 -182.9,0 -365.5,0 -548.4,0 -182.8,0 -365.8,0 -548.8,0 -183,0 -366,0 -548.8,0 -182.9,0 -365.5,0 -548.4,0 -182.8,0 -365.8,0 -548.6,0 -182.9,0 -365.5,0 -548.4,0 -182.8,0 -365.8,0 -548.6,0 -182.8999,0 -365.4999,0 -548.3999,0 -182.8,0 -365.8,0 -457.3,0 H 0 Z"
     fill="#5fa2e4"
     id="path5-7"
     style="stroke-width:0.636525" />
  <path
     d="m 0,348.17179 91.5,-10.8178 c 91.5,-10.7774 274.5,-32.4133 457.3,-30.59 182.9,1.8233 365.5,27.1055 548.3999,39.463 182.8,12.3576 365.8,11.7903 548.6,2.2284 182.9,-9.6024 365.5,-28.24 548.4,-35.1278 182.8,-6.8878 365.8,-2.0259 548.6,-5.7938 182.9,-3.8086 365.5,-16.2067 548.4,-17.7057 182.8,-1.4991 365.8,7.9817 548.8,17.7057 183,9.7239 366,19.691 548.8,25.3633 182.9,5.6723 365.5,7.0499 548.4,6.0369 182.8,-1.0129 365.8,-4.4162 548.6,-5.4292 182.9,-1.0128 365.5,0.3647 548.4,0.2026 182.8,-0.1215 365.8,-1.7422 548.6,-9.4403 182.9,-7.6982 365.5,-21.4738 548.4,-19.1239 182.8,2.3906 365.8,20.8661 457.3,30.1443 l 91.5,9.2378 v -89.9467 h -91.5 c -91.5,0 -274.5,0 -457.3,0 -182.9,0 -365.5,0 -548.4,0 -182.8,0 -365.8,0 -548.6,0 -182.9,0 -365.5,0 -548.4,0 -182.8,0 -365.8,0 -548.6,0 -182.9,0 -365.5,0 -548.4,0 -182.8,0 -365.8,0 -548.8,0 -183,0 -366,0 -548.8,0 -182.9,0 -365.5,0 -548.4,0 -182.8,0 -365.8,0 -548.6,0 -182.9,0 -365.5,0 -548.4,0 -182.8,0 -365.8,0 -548.6,0 -182.8999,0 -365.4999,0 -548.3999,0 -182.8,0 -365.8,0 -457.3,0 H 0 Z"
     fill="#3393f3"
     id="path6-6"
     style="stroke-width:0.636525" />
  <path
     d="m 0,314.13799 91.5,-9.5214 c 91.5,-9.5214 274.5,-28.5642 457.3,-29.2934 182.9,-0.7699 365.5,16.8142 548.3999,24.5124 182.8,7.6982 365.8,5.5102 548.6,2.4715 182.9,-3.0387 365.5,-6.9283 548.4,-7.7386 182.8,-0.8104 365.8,1.4585 548.6,0.04 182.9,-1.4181 365.5,-6.5232 548.4,-12.8032 182.8,-6.2801 365.8,-13.7351 548.8,-10.3317 183,3.3628 366,17.5436 548.8,27.3486 182.9,9.7645 365.5,15.1937 548.4,9.3188 182.8,-5.8749 365.8,-23.0539 548.6,-27.1055 182.9,-4.0517 365.5,5.0239 548.4,10.2911 182.8,5.2672 365.8,6.7258 548.6,9.1568 182.9,2.4309 365.5,5.8343 548.4,8.1843 182.8,2.35 365.8,3.7276 457.3,4.3758 l 91.5,0.6888 v -59.1541 h -91.5 c -91.5,0 -274.5,0 -457.3,0 -182.9,0 -365.5,0 -548.4,0 -182.8,0 -365.8,0 -548.6,0 -182.9,0 -365.5,0 -548.4,0 -182.8,0 -365.8,0 -548.6,0 -182.9,0 -365.5,0 -548.4,0 -182.8,0 -365.8,0 -548.8,0 -183,0 -366,0 -548.8,0 -182.9,0 -365.5,0 -548.4,0 -182.8,0 -365.8,0 -548.6,0 -182.9,0 -365.5,0 -548.4,0 -182.8,0 -365.8,0 -548.6,0 -182.8999,0 -365.4999,0 -548.3999,0 -182.8,0 -365.8,0 -457.3,0 H 0 Z"
     fill="#0080ff"
     id="path7-1"
     style="stroke-width:0.636525" />
  <rect
     style="fill:#0080ff;fill-opacity:1;stroke-width:0.632883"
     id="rect8"
     width="7680.3198"
     height="12.879421"
     x="0.068947777"
     y="244.87805" />
</svg>
