<?xml version="1.0" encoding="UTF-8" standalone="no"?>
<svg
   id="visual"
   viewBox="0 0 7680.3887 740.13959"
   width="7680.3887"
   height="740.13959"
   version="1.1"
   xmlns="http://www.w3.org/2000/svg"
   xmlns:svg="http://www.w3.org/2000/svg">
  <defs
     id="defs7" />
  <path
     d="M 0.06894866,158.52948 91.568949,128.36878 C 183.06895,98.265383 366.06895,37.943983 548.86895,41.320683 c 182.9,3.3194 365.5,70.279497 548.39995,106.621097 182.8,36.3416 365.8,42.0647 548.6,10.8739 182.9,-31.1908 365.5,-99.295597 548.4,-98.894997 182.8,0.3434 365.8,69.249397 548.6,103.873997 182.9,34.6248 365.5,34.9682 548.4,-0.8584 182.8,-35.8838 365.8,-107.994597 548.8,-120.413697 183,-12.3619 366,34.9107 548.8,61.065297 182.9,26.1545 365.5,31.0764 548.4,10.9883 182.8,-20.145297 365.8,-65.357697 548.6,-58.032097 182.9,7.3828 365.5,67.246297 548.4,95.689997 182.8,28.4439 365.8,25.3533 548.6,9.0425 182.9,-16.3107 365.5,-45.8419 548.4,-74.972397 182.8,-29.0733 365.8,-57.6888 457.3,-71.9965 l 91.5,-14.307700081443 V 362.84378 h -91.5 c -91.5,0 -274.5,0 -457.3,0 -182.9,0 -365.5,0 -548.4,0 -182.8,0 -365.8,0 -548.6,0 -182.9,0 -365.5,0 -548.4,0 -182.8,0 -365.8,0 -548.6,0 -182.9,0 -365.5,0 -548.4,0 -182.8,0 -365.8,0 -548.8,0 -183,0 -366,0 -548.8,0 -182.9,0 -365.5,0 -548.4,0 -182.8,0 -365.8,0 -548.6,0 -182.9,0 -365.5,0 -548.4,0 -182.8,0 -365.8,0 -548.6,0 -182.89995,0 -365.49995,0 -548.39995,0 -182.8,0 -365.8,0 -457.300001,0 H 0.06894866 Z"
     fill="#0080ff"
     id="path1"
     style="stroke-width:0.75651" />
  <path
     d="M 0.06894866,152.23408 91.568949,138.32698 C 183.06895,124.36268 366.06895,96.548483 548.86895,79.951483 c 182.9,-16.5969 365.5,-21.9766 548.39995,-22.7206 182.8,-0.744 365.8,3.0332 548.6,-4.9791 182.9,-8.0124 365.5,-27.8142 548.4,-2.8616 182.8,25.0099 365.8,94.831597 548.6,104.446397 182.9,9.672 365.5,-40.9201 548.4,-67.589597 182.8,-26.7269 365.8,-29.5885 548.8,-18.5429 183,11.1028 366,36.055497 548.8,55.800197 182.9,19.7446 365.5,34.2812 548.4,26.7268 182.8,-7.5546 365.8,-37.0857 548.6,-38.7453 182.9,-1.6025 365.5,24.7237 548.4,30.5612 182.8,5.7804 365.8,-8.8707 548.6,-24.6092 182.9,-15.7386 365.5,-32.564397 548.4,-39.145997 182.8,-6.5815 365.8,-2.9187 457.3,-1.1446 l 91.5,1.8314 V 362.84378 h -91.5 c -91.5,0 -274.5,0 -457.3,0 -182.9,0 -365.5,0 -548.4,0 -182.8,0 -365.8,0 -548.6,0 -182.9,0 -365.5,0 -548.4,0 -182.8,0 -365.8,0 -548.6,0 -182.9,0 -365.5,0 -548.4,0 -182.8,0 -365.8,0 -548.8,0 -183,0 -366,0 -548.8,0 -182.9,0 -365.5,0 -548.4,0 -182.8,0 -365.8,0 -548.6,0 -182.9,0 -365.5,0 -548.4,0 -182.8,0 -365.8,0 -548.6,0 -182.89995,0 -365.49995,0 -548.39995,0 -182.8,0 -365.8,0 -457.300001,0 H 0.06894866 Z"
     fill="#3393f3"
     id="path2"
     style="stroke-width:0.75651" />
  <path
     d="M 0.06894866,77.261683 91.568949,103.30178 c 91.500001,26.0399 274.500001,78.1201 457.300001,76.5748 182.9,-1.488 365.5,-56.6585 548.39995,-85.045097 182.8,-28.4437 365.8,-30.1606 548.6,-0.2861 182.9,29.817297 365.5,91.283197 548.4,119.097497 182.8,27.8714 365.8,22.1484 548.6,-2.0031 182.9,-24.0942 365.5,-66.6739 548.4,-88.0211 182.8,-21.3472 365.8,-21.576 548.8,-6.6961 183,14.8801 366,44.8691 548.8,53.511 182.9,8.699 365.5,-3.8918 548.4,-10.3016 182.8,-6.3526 365.8,-6.5816 548.6,8.0123 182.9,14.5938 365.5,44.0106 548.4,39.0315 182.8,-4.9791 365.8,-44.2395 548.6,-44.0678 182.9,0.1717 365.5,39.8899 548.4,43.6099 182.8,3.72 365.8,-28.5582 457.3,-44.6401 l 91.5,-16.139 v 216.905 h -91.5 c -91.5,0 -274.5,0 -457.3,0 -182.9,0 -365.5,0 -548.4,0 -182.8,0 -365.8,0 -548.6,0 -182.9,0 -365.5,0 -548.4,0 -182.8,0 -365.8,0 -548.6,0 -182.9,0 -365.5,0 -548.4,0 -182.8,0 -365.8,0 -548.8,0 -183,0 -366,0 -548.8,0 -182.9,0 -365.5,0 -548.4,0 -182.8,0 -365.8,0 -548.6,0 -182.9,0 -365.5,0 -548.4,0 -182.8,0 -365.8,0 -548.6,0 -182.89995,0 -365.49995,0 -548.39995,0 -182.8,0 -365.8,0 -457.300001,0 H 0.06894866 Z"
     fill="#5fa2e4"
     id="path3"
     style="stroke-width:0.75651" />
  <path
     d="m 0.06894866,110.45558 91.50000034,26.7841 c 91.500001,26.8412 274.500001,80.4094 457.300001,81.6684 182.9,1.2592 365.5,-49.9054 548.39995,-63.6407 182.8,-13.7354 365.8,9.9582 548.6,31.1908 182.9,21.2899 365.5,40.1761 548.4,37.3145 182.8,-2.8615 365.8,-27.4707 548.6,-27.1846 182.9,0.2862 365.5,25.4678 548.4,20.4886 182.8,-4.9218 365.8,-40.0616 548.8,-50.9355 183,-10.8738 366,2.5182 548.8,16.0247 182.9,13.5637 365.5,27.2991 548.4,28.0431 182.8,0.8012 365.8,-11.4461 548.6,-14.3649 182.9,-2.9761 365.5,3.3194 548.4,15.9102 182.8,12.5907 365.8,31.4769 548.6,39.8899 182.9,8.3557 365.5,6.2953 548.4,2.8615 182.8,-3.4339 365.8,-8.2412 457.3,-10.5878 l 91.5,-2.4036 v 121.3295 h -91.5 c -91.5,0 -274.5,0 -457.3,0 -182.9,0 -365.5,0 -548.4,0 -182.8,0 -365.8,0 -548.6,0 -182.9,0 -365.5,0 -548.4,0 -182.8,0 -365.8,0 -548.6,0 -182.9,0 -365.5,0 -548.4,0 -182.8,0 -365.8,0 -548.8,0 -183,0 -366,0 -548.8,0 -182.9,0 -365.5,0 -548.4,0 -182.8,0 -365.8,0 -548.6,0 -182.9,0 -365.5,0 -548.4,0 -182.8,0 -365.8,0 -548.6,0 -182.89995,0 -365.49995,0 -548.39995,0 -182.8,0 -365.8,0 -457.300001,0 H 0.06894866 Z"
     fill="#6fa8dd"
     id="path4"
     style="stroke-width:0.75651" />
  <path
     d="m 0.06894866,246.09268 91.50000034,-6.1809 c 91.500001,-6.2382 274.500001,-18.6 457.300001,-17.2836 182.9,1.3162 365.5,16.4252 548.39995,19.859 182.8,3.4339 365.8,-4.8074 548.6,-11.16 182.9,-6.4098 365.5,-10.9884 548.4,-8.8136 182.8,2.2321 365.8,11.16 548.6,1.1447 182.9,-10.0154 365.5,-38.9742 548.4,-38.8026 182.8,0.1718 365.8,29.5883 548.8,35.0825 183,5.5515 366,-12.7624 548.8,-27.1846 182.9,-14.365 365.5,-24.8955 548.4,-16.597 182.8,8.2986 365.8,35.4259 548.6,42.4653 182.9,7.0394 365.5,-5.8947 548.4,4.464 182.8,10.4161 365.8,44.1823 548.6,57.6316 182.9,13.4492 365.5,6.5815 548.4,1.1445 182.8,-5.4368 365.8,-9.443 457.3,-11.4461 l 91.5,-2.0031 v 94.431 h -91.5 c -91.5,0 -274.5,0 -457.3,0 -182.9,0 -365.5,0 -548.4,0 -182.8,0 -365.8,0 -548.6,0 -182.9,0 -365.5,0 -548.4,0 -182.8,0 -365.8,0 -548.6,0 -182.9,0 -365.5,0 -548.4,0 -182.8,0 -365.8,0 -548.8,0 -183,0 -366,0 -548.8,0 -182.9,0 -365.5,0 -548.4,0 -182.8,0 -365.8,0 -548.6,0 -182.9,0 -365.5,0 -548.4,0 -182.8,0 -365.8,0 -548.6,0 -182.89995,0 -365.49995,0 -548.39995,0 -182.8,0 -365.8,0 -457.300001,0 H 0.06894866 Z"
     fill="#5fa2e4"
     id="path5"
     style="stroke-width:0.75651" />
  <path
     d="m 0.06894866,264.40668 91.50000034,1.8313 c 91.500001,1.7742 274.500001,5.437 457.300001,3.4339 182.9,-2.0031 365.5,-9.672 548.39995,-2.6899 182.8,6.9823 365.8,28.501 548.6,29.3595 182.9,0.8585 365.5,-18.9434 548.4,-19.1724 182.8,-0.1716 365.8,19.2868 548.6,12.5908 182.9,-6.6388 365.5,-39.4892 548.4,-42.408 182.8,-2.976 365.8,23.9224 548.8,27.2418 183,3.3767 366,-16.883 548.8,-17.7415 182.9,-0.8585 365.5,17.6844 548.4,31.4198 182.8,13.7354 365.8,22.6634 548.6,18.7716 182.9,-3.8916 365.5,-20.7175 548.4,-34.9108 182.8,-14.1933 365.8,-25.8683 548.6,-22.7207 182.9,3.1478 365.5,21.1182 548.4,18.5429 182.8,-2.5754 365.8,-25.6967 457.3,-37.2001 l 91.5,-11.5606 v 143.6495 h -91.5 c -91.5,0 -274.5,0 -457.3,0 -182.9,0 -365.5,0 -548.4,0 -182.8,0 -365.8,0 -548.6,0 -182.9,0 -365.5,0 -548.4,0 -182.8,0 -365.8,0 -548.6,0 -182.9,0 -365.5,0 -548.4,0 -182.8,0 -365.8,0 -548.8,0 -183,0 -366,0 -548.8,0 -182.9,0 -365.5,0 -548.4,0 -182.8,0 -365.8,0 -548.6,0 -182.9,0 -365.5,0 -548.4,0 -182.8,0 -365.8,0 -548.6,0 -182.89995,0 -365.49995,0 -548.39995,0 -182.8,0 -365.8,0 -457.300001,0 H 0.06894866 Z"
     fill="#3393f3"
     id="path6"
     style="stroke-width:0.75651" />
  <path
     d="M 0.06894866,330.79448 91.568949,320.66458 c 91.500001,-10.0726 274.500001,-30.3323 457.300001,-29.8173 182.9,0.4579 365.5,21.6333 548.39995,23.3502 182.8,1.717 365.8,-16.0246 548.6,-23.7508 182.9,-7.7262 365.5,-5.4369 548.4,-0.7439 182.8,4.6356 365.8,11.7322 548.6,20.3168 182.9,8.5847 365.5,18.6573 548.4,17.5127 182.8,-1.1446 365.8,-13.5064 548.8,-20.6603 183,-7.1538 366,-9.0997 548.8,-7.2683 182.9,1.8313 365.5,7.3255 548.4,9.2713 182.8,1.8886 365.8,0.1718 548.6,-4.979 182.9,-5.1508 365.5,-13.7354 548.4,-9.8437 182.8,3.9488 365.8,20.3169 548.6,32.2782 182.9,11.904 365.5,19.344 548.4,11.0455 182.8,-8.2984 365.8,-32.3354 457.3,-44.3539 l 91.5,-12.0184 v 81.8401 h -91.5 c -91.5,0 -274.5,0 -457.3,0 -182.9,0 -365.5,0 -548.4,0 -182.8,0 -365.8,0 -548.6,0 -182.9,0 -365.5,0 -548.4,0 -182.8,0 -365.8,0 -548.6,0 -182.9,0 -365.5,0 -548.4,0 -182.8,0 -365.8,0 -548.8,0 -183,0 -366,0 -548.8,0 -182.9,0 -365.5,0 -548.4,0 -182.8,0 -365.8,0 -548.6,0 -182.9,0 -365.5,0 -548.4,0 -182.8,0 -365.8,0 -548.6,0 -182.89995,0 -365.49995,0 -548.39995,0 -182.8,0 -365.8,0 -457.300001,0 H 0.06894866 Z"
     fill="#0080ff"
     id="path7"
     style="stroke-width:0.75651" />
  <path
     d="m 0,637.17028 91.5,13.4493 c 91.5,13.4492 274.5,40.3477 457.3,41.664 182.9,1.3736 365.5,-22.8923 548.3999,-14.1932 182.8,8.6991 365.8,50.2487 548.6,53.2247 182.9,2.976 365.5,-32.736 548.4,-39.0315 182.8,-6.2953 365.8,16.8259 548.6,32.3355 182.9,15.5668 365.5,23.5791 548.4,3.8345 182.8,-19.7447 365.8,-67.2463 548.8,-84.2439 183,-16.9403 366,-3.4338 548.8,21.7478 182.9,25.1816 365.5,62.0382 548.4,47.9023 182.8,-14.1361 365.8,-79.1504 548.6,-78.8642 182.9,0.2861 365.5,65.8727 548.4,60.4357 182.8,-5.4368 365.8,-81.8973 548.6,-120.4709 182.9,-38.5164 365.5,-39.0887 548.4,-33.8235 182.8,5.208 365.8,16.3108 457.3,21.805 l 91.5,5.5514 v -208.8928 h -91.5 c -91.5,0 -274.5,0 -457.3,0 -182.9,0 -365.5,0 -548.4,0 -182.8,0 -365.8,0 -548.6,0 -182.9,0 -365.5,0 -548.4,0 -182.8,0 -365.8,0 -548.6,0 -182.9,0 -365.5,0 -548.4,0 -182.8,0 -365.8,0 -548.8,0 -183,0 -366,0 -548.8,0 -182.9,0 -365.5,0 -548.4,0 -182.8,0 -365.8,0 -548.6,0 -182.9,0 -365.5,0 -548.4,0 -182.8,0 -365.8,0 -548.6,0 -182.8999,0 -365.4999,0 -548.3999,0 -182.8,0 -365.8,0 -457.3,0 H 0 Z"
     fill="#0080ff"
     id="path1-1"
     style="stroke-width:0.75651" />
  <path
     d="m 0,654.91188 91.5,-24.4376 c 91.5,-24.3803 274.5,-73.2555 457.3,-75.8881 182.9,-2.6899 365.5,40.8056 548.3999,46.9293 182.8,6.0665 365.8,-25.1816 548.6,-25.6967 182.9,-0.4578 365.5,29.8746 548.4,57.5171 182.8,27.6997 365.8,52.6524 548.6,64.0985 182.9,11.4462 365.5,9.3859 548.4,1.3736 182.8,-8.0123 365.8,-21.9767 548.8,-42.637 183,-20.7176 366,-48.1884 548.8,-61.466 182.9,-13.2203 365.5,-12.3046 548.4,-12.5907 182.8,-0.2862 365.8,-1.7742 548.6,-16.8832 182.9,-15.0517 365.5,-43.6672 548.4,-49.5047 182.8,-5.7803 365.8,11.1601 548.6,48.4746 182.9,37.3145 365.5,94.8887 548.4,99.9823 182.8,5.0363 365.8,-42.4653 457.3,-66.2161 l 91.5,-23.7509 v -214.6158 h -91.5 c -91.5,0 -274.5,0 -457.3,0 -182.9,0 -365.5,0 -548.4,0 -182.8,0 -365.8,0 -548.6,0 -182.9,0 -365.5,0 -548.4,0 -182.8,0 -365.8,0 -548.6,0 -182.9,0 -365.5,0 -548.4,0 -182.8,0 -365.8,0 -548.8,0 -183,0 -366,0 -548.8,0 -182.9,0 -365.5,0 -548.4,0 -182.8,0 -365.8,0 -548.6,0 -182.9,0 -365.5,0 -548.4,0 -182.8,0 -365.8,0 -548.6,0 -182.8999,0 -365.4999,0 -548.3999,0 -182.8,0 -365.8,0 -457.3,0 H 0 Z"
     fill="#3393f3"
     id="path2-1"
     style="stroke-width:0.75651" />
  <path
     d="m 0,599.97018 91.5,4.2924 c 91.5,4.2923 274.5,12.8769 457.3,13.3348 182.9,0.515 365.5,-7.1539 548.3999,-26.9558 182.8,-19.8591 365.8,-51.9083 548.6,-72.5115 182.9,-20.6031 365.5,-29.76 548.4,-13.7355 182.8,16.0247 365.8,57.231 548.6,60.8365 182.9,3.6628 365.5,-30.3323 548.4,-26.9557 182.8,3.3194 365.8,43.9533 548.8,38.4019 183,-5.4942 366,-57.2309 548.8,-55.8001 182.9,1.4307 365.5,56.0291 548.4,87.1054 182.8,31.0764 365.8,38.7453 548.6,43.3237 182.9,4.5786 365.5,6.0665 548.4,-6.8676 182.8,-12.9915 365.8,-40.4623 548.6,-43.7244 182.9,-3.205 365.5,17.7415 548.4,24.7237 182.8,6.9822 365.8,-0.1144 457.3,-3.6056 l 91.5,-3.5482 v -258.6837 h -91.5 c -91.5,0 -274.5,0 -457.3,0 -182.9,0 -365.5,0 -548.4,0 -182.8,0 -365.8,0 -548.6,0 -182.9,0 -365.5,0 -548.4,0 -182.8,0 -365.8,0 -548.6,0 -182.9,0 -365.5,0 -548.4,0 -182.8,0 -365.8,0 -548.8,0 -183,0 -366,0 -548.8,0 -182.9,0 -365.5,0 -548.4,0 -182.8,0 -365.8,0 -548.6,0 -182.9,0 -365.5,0 -548.4,0 -182.8,0 -365.8,0 -548.6,0 -182.8999,0 -365.4999,0 -548.3999,0 -182.8,0 -365.8,0 -457.3,0 H 0 Z"
     fill="#5fa2e4"
     id="path3-5"
     style="stroke-width:0.75651" />
  <path
     d="m 0,544.45628 91.5,10.3016 c 91.5,10.3016 274.5,30.9046 457.3,33.9379 182.9,3.0905 365.5,-11.4462 548.3999,-14.5939 182.8,-3.1477 365.8,5.0935 548.6,3.6628 182.9,-1.4308 365.5,-12.5336 548.4,-8.6991 182.8,3.8344 365.8,22.4917 548.6,10.8739 182.9,-11.6179 365.5,-53.6254 548.4,-75.4304 182.8,-21.8622 365.8,-23.5791 548.8,-9.6719 183,13.9643 366,43.4954 548.8,47.0437 182.9,3.5483 365.5,-19.0007 548.4,-25.0098 182.8,-6.0094 365.8,4.5212 548.6,20.0307 182.9,15.5668 365.5,36.1699 548.4,44.5829 182.8,8.3557 365.8,4.5784 548.6,-19.573 182.9,-24.1514 365.5,-68.5626 548.4,-89.2801 182.8,-20.7176 365.8,-17.6272 457.3,-16.1392 l 91.5,1.5453 v -98.4372 h -91.5 c -91.5,0 -274.5,0 -457.3,0 -182.9,0 -365.5,0 -548.4,0 -182.8,0 -365.8,0 -548.6,0 -182.9,0 -365.5,0 -548.4,0 -182.8,0 -365.8,0 -548.6,0 -182.9,0 -365.5,0 -548.4,0 -182.8,0 -365.8,0 -548.8,0 -183,0 -366,0 -548.8,0 -182.9,0 -365.5,0 -548.4,0 -182.8,0 -365.8,0 -548.6,0 -182.9,0 -365.5,0 -548.4,0 -182.8,0 -365.8,0 -548.6,0 -182.8999,0 -365.4999,0 -548.3999,0 -182.8,0 -365.8,0 -457.3,0 H 0 Z"
     fill="#6fa8dd"
     id="path4-2"
     style="stroke-width:0.75651" />
  <path
     d="m 0,441.44068 91.5,-1.0302 c 91.5,-1.0873 274.5,-3.1477 457.3,16.5971 182.9,19.7445 365.5,61.2942 548.3999,81.6112 182.8,20.3169 365.8,19.4012 548.6,9.9582 182.9,-9.4432 365.5,-27.4137 548.4,-40.9201 182.8,-13.5638 365.8,-22.7207 548.6,-31.7632 182.9,-9.0997 365.5,-18.0277 548.4,-26.8985 182.8,-8.8708 365.8,-17.6844 548.8,-12.5908 183,5.0363 366,23.9225 548.8,24.3804 182.9,0.5151 365.5,-17.4555 548.4,-15.0517 182.8,2.4036 365.8,25.067 548.6,24.6092 182.9,-0.4578 365.5,-24.1514 548.4,-30.2179 182.8,-6.1237 365.8,5.3225 548.6,18.9434 182.9,13.6782 365.5,29.4739 548.4,44.2967 182.8,14.7656 365.8,28.501 457.3,35.3688 l 91.5,6.8676 v -186.0004 h -91.5 c -91.5,0 -274.5,0 -457.3,0 -182.9,0 -365.5,0 -548.4,0 -182.8,0 -365.8,0 -548.6,0 -182.9,0 -365.5,0 -548.4,0 -182.8,0 -365.8,0 -548.6,0 -182.9,0 -365.5,0 -548.4,0 -182.8,0 -365.8,0 -548.8,0 -183,0 -366,0 -548.8,0 -182.9,0 -365.5,0 -548.4,0 -182.8,0 -365.8,0 -548.6,0 -182.9,0 -365.5,0 -548.4,0 -182.8,0 -365.8,0 -548.6,0 -182.8999,0 -365.4999,0 -548.3999,0 -182.8,0 -365.8,0 -457.3,0 H 0 Z"
     fill="#5fa2e4"
     id="path5-7"
     style="stroke-width:0.75651" />
  <path
     d="m 0,491.80388 91.5,-15.2806 c 91.5,-15.2234 274.5,-45.7848 457.3,-43.2093 182.9,2.5754 365.5,38.2874 548.3999,55.7428 182.8,17.4554 365.8,16.6542 548.6,3.1477 182.9,-13.5637 365.5,-39.8899 548.4,-49.6192 182.8,-9.7292 365.8,-2.8616 548.6,-8.184 182.9,-5.3797 365.5,-22.8924 548.4,-25.0098 182.8,-2.1176 365.8,11.2744 548.8,25.0098 183,13.7354 366,27.8143 548.8,35.8265 182.9,8.0124 365.5,9.9582 548.4,8.5274 182.8,-1.4308 365.8,-6.2381 548.6,-7.6689 182.9,-1.4307 365.5,0.5151 548.4,0.2861 182.8,-0.1716 365.8,-2.4609 548.6,-13.3347 182.9,-10.8739 365.5,-30.3324 548.4,-27.0131 182.8,3.3767 365.8,29.474 457.3,42.5798 l 91.5,13.0487 v -127.0526 h -91.5 c -91.5,0 -274.5,0 -457.3,0 -182.9,0 -365.5,0 -548.4,0 -182.8,0 -365.8,0 -548.6,0 -182.9,0 -365.5,0 -548.4,0 -182.8,0 -365.8,0 -548.6,0 -182.9,0 -365.5,0 -548.4,0 -182.8,0 -365.8,0 -548.8,0 -183,0 -366,0 -548.8,0 -182.9,0 -365.5,0 -548.4,0 -182.8,0 -365.8,0 -548.6,0 -182.9,0 -365.5,0 -548.4,0 -182.8,0 -365.8,0 -548.6,0 -182.8999,0 -365.4999,0 -548.3999,0 -182.8,0 -365.8,0 -457.3,0 H 0 Z"
     fill="#3393f3"
     id="path6-6"
     style="stroke-width:0.75651" />
  <path
     d="m 0,443.72998 91.5,-13.4493 c 91.5,-13.4493 274.5,-40.3478 457.3,-41.3779 182.9,-1.0874 365.5,23.7507 548.3999,34.6246 182.8,10.8739 365.8,7.7834 548.6,3.4911 182.9,-4.2923 365.5,-9.7864 548.4,-10.931 182.8,-1.1447 365.8,2.0602 548.6,0.057 182.9,-2.0031 365.5,-9.2142 548.4,-18.0849 182.8,-8.8709 365.8,-19.4013 548.8,-14.5939 183,4.7501 366,24.7809 548.8,38.6308 182.9,13.7927 365.5,21.4616 548.4,13.1631 182.8,-8.2985 365.8,-32.5643 548.6,-38.2874 182.9,-5.7231 365.5,7.0965 548.4,14.5366 182.8,7.44 365.8,9.5003 548.6,12.9342 182.9,3.4338 365.5,8.2412 548.4,11.5606 182.8,3.3194 365.8,5.2653 457.3,6.181 l 91.5,0.9729 v -83.5571 h -91.5 c -91.5,0 -274.5,0 -457.3,0 -182.9,0 -365.5,0 -548.4,0 -182.8,0 -365.8,0 -548.6,0 -182.9,0 -365.5,0 -548.4,0 -182.8,0 -365.8,0 -548.6,0 -182.9,0 -365.5,0 -548.4,0 -182.8,0 -365.8,0 -548.8,0 -183,0 -366,0 -548.8,0 -182.9,0 -365.5,0 -548.4,0 -182.8,0 -365.8,0 -548.6,0 -182.9,0 -365.5,0 -548.4,0 -182.8,0 -365.8,0 -548.6,0 -182.8999,0 -365.4999,0 -548.3999,0 -182.8,0 -365.8,0 -457.3,0 H 0 Z"
     fill="#0080ff"
     id="path7-1"
     style="stroke-width:0.75651" />
  <rect
     style="fill:#0080ff;fill-opacity:1;stroke-width:0.752181"
     id="rect8"
     width="7680.3198"
     height="18.192598"
     x="0.068947777"
     y="345.89813" />
</svg>
